<svg xmlns="http://www.w3.org/2000/svg" viewBox="0 0 200 200" width="200" height="200">
  <rect width="200" height="200" fill="#f4f3ef" rx="12"/>
  <g transform="translate(44, 44) scale(0.4)" stroke="#2b2b2b" stroke-width="7.5" stroke-linejoin="round">
    <!-- Rubber Body (Light Gray) -->
    <path fill="#d0d4d8" d="M183.679,4.634l91.683,91.683c6.178,6.178,6.178,16.207,0,22.385L118.695,275.359
		c-6.178,6.187-16.207,6.187-22.385,0L4.637,183.676c-6.178-6.178-6.178-16.198,0-22.376L161.295,4.634
		C167.482-1.545,177.501-1.545,183.679,4.634z"/>
    <!-- Sleeve Top Half (Terracotta) -->
	<path fill="#c2694f" d="M84.34,81.597L4.637,161.3c-6.178,6.178-6.178,16.198,0,22.376l91.683,91.683
		c6.178,6.187,16.207,6.187,22.385,0l79.703-79.694L84.34,81.597z"/>
    <!-- Sleeve Bottom Half (Slate Blue) -->
	<path fill="#52667a" d="M40.585,125.352L4.637,161.3c-6.178,6.178-6.178,16.198,0,22.376l91.683,91.683
		c6.178,6.187,16.207,6.187,22.385,0l35.949-35.94L40.585,125.352z"/>
    <!-- Highlight Line (Yellow) -->
	<path fill="#c9a227" stroke="none" d="M20.416,145.548l114.041,114.041l-10.555,10.555L9.861,156.103L20.416,145.548z"/>
  </g>
</svg>
